<?xml version="1.0" encoding="UTF-8"?>
<svg id="Layer_2" data-name="Layer 2" xmlns="http://www.w3.org/2000/svg" viewBox="0 0 99.02 33.06">
  <defs>
    <style>
      .cls-1 {
        fill: #152f47;
      }

      .cls-2 {
        fill: #ffc9e2;
      }

      .cls-3 {
        fill: #fff;
      }
    </style>
  </defs>
  <g id="OBJECTS">
    <g>
      <g>
        <path class="cls-1" d="M3.67,17.12c1.47-2.8,3.54-5.27,5.9-7.35,7.4-6.54,15.25-1.12,20.56,5.19,1.65,1.96,4.44-.86,2.81-2.81C27.23,5.36,19.7.27,10.84,4.22,6.33,6.23,2.5,10.81.25,15.11c-1.18,2.26,2.24,4.27,3.43,2h0Z"/>
        <g>
          <path class="cls-1" d="M99.02,14.79c0,8.17-6.62,10.56-14.79,10.56s-14.79-2.39-14.79-10.56S76.06,0,84.23,0s14.79,6.62,14.79,14.79Z"/>
          <g>
            <path class="cls-3" d="M95.73,9.8c.36,2.37-1.27,4.58-3.64,4.94-2.37.36-4.58-1.27-4.94-3.64-.36-2.37,1.27-4.58,3.64-4.94,2.37-.36,4.58,1.27,4.94,3.64Z"/>
            <path class="cls-3" d="M87.73,15.69c.12.79-.43,1.53-1.22,1.65-.79.12-1.53-.43-1.65-1.22-.12-.79.42-1.53,1.22-1.65.79-.12,1.53.42,1.65,1.22Z"/>
            <path class="cls-3" d="M85.17,11.39c.18,1.18-.64,2.29-1.82,2.47-1.18.18-2.29-.64-2.47-1.82-.18-1.19.64-2.29,1.82-2.47,1.18-.18,2.29.63,2.47,1.82Z"/>
          </g>
        </g>
      </g>
      <g>
        <path class="cls-1" d="M52.12,14.94c-4.16-.02-8.45.52-8.87,6.55-.02.12-.04.25-.03.39,0,.13,0,.25.03.37.37,6.1,3.96,10.51,8.88,10.8,5.01.3,8.68-5.33,8.91-11.17.25-6.46-5.07-6.93-8.91-6.94Z"/>
        <path class="cls-2" d="M46.29,30.17c1.53,1.69,3.53,2.74,5.84,2.88,2.31.14,4.33-1,5.87-2.82-1.29-2.87-3.44-4.76-5.87-4.76s-4.54,1.86-5.84,4.7Z"/>
      </g>
    </g>
  </g>
</svg>