<svg width="217" height="159" viewBox="0 0 217 159" fill="none" xmlns="http://www.w3.org/2000/svg">
<path d="M48.0002 18.5001C61.2002 -1.89986 78.8335 32.3335 86.0002 52.0001C98.0003 48.0003 115.333 49.0001 122.5 50C127.833 33.3333 141.6 0 154 0C166.4 0 174.833 50.3333 177.5 75.5C180.5 75.5 214 152.5 108.5 158.5C23.6998 158.5 25.5001 105.5 37.0002 79C35.1668 67.3334 34.8002 38.9001 48.0002 18.5001Z" fill="black"/>
<path d="M5.3583 96.0417C7.52353 95.986 10.9363 95.9691 14.2089 96.1003C15.8429 96.1658 17.507 96.27 18.994 96.4362C20.3607 96.589 22.0048 96.8358 23.3632 97.3249C26.2211 98.3539 27.7037 101.505 26.6747 104.363C25.6457 107.221 22.4946 108.703 19.6366 107.674C19.6654 107.685 19.5299 107.636 19.1503 107.565C18.7964 107.499 18.3367 107.432 17.7724 107.369C16.641 107.242 15.2603 107.151 13.7685 107.091C10.7893 106.972 7.62437 106.987 5.6415 107.038C2.60507 107.116 0.0801481 104.718 0.00185442 101.681C-0.0762383 98.6448 2.32184 96.1199 5.3583 96.0417Z" fill="black"/>
<path d="M6.06019 118.635C8.15398 117.695 11.4875 116.322 14.7836 115.219C16.4292 114.668 18.1554 114.152 19.7631 113.798C21.2281 113.475 23.1384 113.156 24.9187 113.357C27.937 113.699 30.1069 116.423 29.7655 119.441C29.424 122.459 26.7008 124.629 23.6826 124.288C23.7922 124.3 23.3608 124.27 22.1304 124.541C21.0424 124.781 19.7183 125.166 18.2767 125.649C15.3985 126.612 12.4079 127.844 10.5643 128.671C7.79328 129.915 4.5382 128.676 3.29428 125.905C2.05047 123.134 3.28911 119.879 6.06019 118.635Z" fill="black"/>
<path d="M210.942 96.0417C208.776 95.986 205.363 95.9691 202.091 96.1003C200.457 96.1658 198.793 96.27 197.306 96.4362C195.939 96.589 194.295 96.8358 192.937 97.3249C190.079 98.3539 188.596 101.505 189.625 104.363C190.654 107.221 193.805 108.703 196.663 107.674C196.634 107.685 196.77 107.636 197.15 107.565C197.503 107.499 197.963 107.432 198.527 107.369C199.659 107.242 201.04 107.151 202.531 107.091C205.51 106.972 208.675 106.987 210.658 107.038C213.695 107.116 216.22 104.718 216.298 101.681C216.376 98.6448 213.978 96.1199 210.942 96.0417Z" fill="black"/>
<path d="M210.24 118.635C208.146 117.695 204.812 116.322 201.516 115.219C199.871 114.668 198.144 114.152 196.537 113.798C195.072 113.475 193.161 113.156 191.381 113.357C188.363 113.699 186.193 116.423 186.534 119.441C186.876 122.459 189.599 124.629 192.617 124.288C192.508 124.3 192.939 124.27 194.169 124.541C195.257 124.781 196.582 125.166 198.023 125.649C200.901 126.612 203.892 127.844 205.735 128.671C208.507 129.915 211.762 128.676 213.006 125.905C214.249 123.134 213.011 119.879 210.24 118.635Z" fill="black"/>
<path d="M91.472 106.015C91.472 120.946 82.5668 130.5 70.9799 130.5C59.393 130.5 50 121.967 50 107.035C50 92.1041 59.393 80 70.9799 80C82.5668 80 91.472 91.0839 91.472 106.015Z" fill="white"/>
<ellipse cx="78.5" cy="96" rx="7.5" ry="7" fill="black"/>
<path d="M125 106.015C125 120.946 133.905 130.5 145.492 130.5C157.079 130.5 166.472 121.967 166.472 107.035C166.472 92.1041 157.079 80 145.492 80C133.905 80 125 91.0839 125 106.015Z" fill="white"/>
<ellipse cx="153.5" cy="95" rx="7.5" ry="7" fill="black"/>
</svg>
