<?xml version="1.0" encoding="UTF-8"?>
<svg id="Layer_2" data-name="Layer 2" xmlns="http://www.w3.org/2000/svg" viewBox="0 0 106.9 31.39">
  <defs>
    <style>
      .cls-1 {
        fill: #152f47;
      }

      .cls-2 {
        fill: #fff;
      }
    </style>
  </defs>
  <g id="OBJECTS">
    <g>
      <g>
        <path class="cls-1" d="M21.65,6.48c-1.94,3.21-6.79,5.5-12.49,5.5-1.19,0-2.33-.11-3.43-.29-1.91,2.49-3.06,5.6-3.06,8.98,0,8.17,6.62,10.56,14.79,10.56s14.79-2.39,14.79-10.56c0-6.71-4.48-12.38-10.61-14.18Z"/>
        <g>
          <path class="cls-2" d="M28.98,15.67c.36,2.37-1.27,4.58-3.64,4.94-2.37.36-4.58-1.27-4.94-3.64-.36-2.37,1.27-4.58,3.64-4.94,2.37-.36,4.58,1.27,4.94,3.64Z"/>
          <path class="cls-2" d="M20.97,21.56c.12.79-.43,1.53-1.22,1.65-.79.12-1.53-.43-1.65-1.22-.12-.79.43-1.53,1.22-1.65.79-.12,1.53.43,1.65,1.22Z"/>
          <path class="cls-2" d="M18.41,17.27c.18,1.18-.64,2.29-1.82,2.47-1.18.18-2.29-.64-2.47-1.82-.18-1.19.64-2.29,1.82-2.47,1.18-.18,2.29.63,2.47,1.82Z"/>
        </g>
        <path class="cls-1" d="M.39,10.45c6.59,6.54,26.98,1.77,23.91-9.52-.45-1.64-3-.95-2.55.7,2.3,8.44-14.69,11.7-19.49,6.94-1.21-1.2-3.08.67-1.87,1.87H.39Z"/>
        <g>
          <path class="cls-1" d="M85.25,6.48c1.94,3.21,6.8,5.5,12.49,5.5,1.19,0,2.33-.11,3.43-.29,1.91,2.49,3.06,5.6,3.06,8.98,0,8.17-6.62,10.56-14.79,10.56s-14.79-2.39-14.79-10.56c0-6.71,4.48-12.38,10.61-14.18Z"/>
          <g>
            <path class="cls-2" d="M100.94,15.67c.36,2.37-1.27,4.58-3.64,4.94-2.37.36-4.58-1.27-4.94-3.64-.36-2.37,1.27-4.58,3.64-4.94,2.37-.36,4.58,1.27,4.94,3.64Z"/>
            <path class="cls-2" d="M92.93,21.56c.12.79-.43,1.53-1.22,1.65-.79.12-1.53-.43-1.65-1.22-.12-.79.43-1.53,1.22-1.65.79-.12,1.53.43,1.65,1.22Z"/>
            <path class="cls-2" d="M90.37,17.27c.18,1.18-.64,2.29-1.82,2.47-1.19.18-2.29-.64-2.47-1.82-.18-1.19.64-2.29,1.82-2.47,1.18-.18,2.29.63,2.47,1.82Z"/>
          </g>
          <path class="cls-1" d="M106.51,10.45c-6.59,6.54-26.98,1.77-23.91-9.52.45-1.64,3-.95,2.55.7-2.3,8.44,14.69,11.7,19.48,6.94,1.21-1.2,3.08.67,1.87,1.87h0Z"/>
        </g>
      </g>
      <path class="cls-1" d="M63.55,29.47c.59-13.42-21.28-13.5-20.17,0,.21,2.53,4.18,2.55,3.97,0-.69-8.41,12.59-8.29,12.23,0-.11,2.56,3.86,2.55,3.97,0h0Z"/>
    </g>
  </g>
</svg>