<svg width="211" height="203" viewBox="0 0 211 203" fill="none" xmlns="http://www.w3.org/2000/svg">
<path fill-rule="evenodd" clip-rule="evenodd" d="M121.82 3.15108C122.523 1.48251 121.039 -0.467441 119.32 0.10041C108.307 3.73809 92.3401 11.7754 90.7285 23.7031C90.6572 24.2285 90.5674 24.7539 90.4595 25.2793C87.0249 41.9922 65.4712 57.5918 57.54 57.5918C53.2505 57.5918 52.6093 50.4966 53.1814 43.2817C53.3135 41.6153 51.5175 40.4397 50.1089 41.3398C21.7818 59.4432 0 89.9577 0 124.551C0 192.553 47.2046 202.107 105.434 202.107C163.664 202.107 210.869 191.43 210.869 124.551C210.869 91.7817 193.205 61.4596 166.159 42.8529C164.788 41.9093 162.934 43.0258 162.847 44.6883C162.329 54.5969 156.03 59.4414 151.159 61.1852C150.009 61.597 148.885 60.7067 148.761 59.4911C147.827 50.288 143.074 34.0208 129.526 27.6758C128.472 27.1816 127.519 26.6465 126.66 26.0742C117.668 20.0855 118.891 10.1068 121.82 3.15108Z" fill="black"/>
</svg>
