<?xml version="1.0" encoding="UTF-8"?>
<svg id="Layer_2" data-name="Layer 2" xmlns="http://www.w3.org/2000/svg" viewBox="0 0 101.54 32.94">
  <defs>
    <style>
      .cls-1 {
        fill: #152f47;
      }

      .cls-2 {
        fill: #ffc9e2;
      }

      .cls-3 {
        fill: #fff;
      }
    </style>
  </defs>
  <g id="OBJECTS">
    <g>
      <g>
        <g>
          <path class="cls-1" d="M29.58,14.79c0,8.17-6.62,10.56-14.79,10.56S0,22.96,0,14.79,6.62,0,14.79,0s14.79,6.62,14.79,14.79Z"/>
          <g>
            <path class="cls-3" d="M26.3,9.8c.36,2.37-1.27,4.58-3.64,4.94-2.37.36-4.58-1.27-4.94-3.64-.36-2.37,1.27-4.58,3.64-4.94,2.37-.36,4.58,1.27,4.94,3.64Z"/>
            <path class="cls-3" d="M18.29,15.69c.12.79-.43,1.53-1.22,1.65-.79.12-1.53-.43-1.65-1.22-.12-.79.43-1.53,1.22-1.65.79-.12,1.53.43,1.65,1.22Z"/>
            <path class="cls-3" d="M15.73,11.39c.18,1.18-.64,2.29-1.82,2.47-1.18.18-2.29-.64-2.47-1.82-.18-1.19.64-2.29,1.82-2.47,1.18-.18,2.29.63,2.47,1.82Z"/>
          </g>
        </g>
        <g>
          <path class="cls-1" d="M101.54,14.79c0,8.17-6.62,10.56-14.79,10.56s-14.79-2.39-14.79-10.56S78.58,0,86.75,0s14.79,6.62,14.79,14.79Z"/>
          <g>
            <path class="cls-3" d="M98.26,9.8c.36,2.37-1.27,4.58-3.64,4.94-2.37.36-4.58-1.27-4.94-3.64-.36-2.37,1.27-4.58,3.64-4.94,2.37-.36,4.58,1.27,4.94,3.64Z"/>
            <path class="cls-3" d="M90.25,15.69c.12.79-.43,1.53-1.22,1.65-.79.12-1.53-.43-1.65-1.22-.12-.79.42-1.53,1.22-1.65.79-.12,1.53.43,1.65,1.22Z"/>
            <path class="cls-3" d="M87.69,11.39c.18,1.18-.64,2.29-1.82,2.47-1.18.18-2.29-.64-2.47-1.82-.18-1.19.64-2.29,1.82-2.47,1.19-.18,2.29.63,2.47,1.82Z"/>
          </g>
        </g>
      </g>
      <g>
        <path class="cls-2" d="M50.23,22.99c-2.05,0-4.01-.26-5.81-.72-.03.38-.05.76-.05,1.14,0,5.26,2.78,9.53,6.22,9.53s6.22-4.26,6.22-9.53c0-.46-.03-.9-.07-1.34-1.99.59-4.19.92-6.51.92Z"/>
        <path class="cls-1" d="M34.38,21.16c9.65,5.7,21.88,4.62,31.64,0,2.31-1.09.3-4.52-2-3.43-8.46,4-19.26,4.94-27.63,0-2.21-1.3-4.2,2.13-2,3.43h0Z"/>
      </g>
    </g>
  </g>
</svg>